<svg xmlns="http://www.w3.org/2000/svg" viewBox="6 3 20 22"><defs><linearGradient id="fav-grad" x1="0" y1="0" x2="1" y2="1"><stop offset="0%" stop-color="#5fd9c7"/><stop offset="55%" stop-color="#3ec9b6"/><stop offset="100%" stop-color="#0d6b62"/></linearGradient></defs><path d="M16 4c-4.4 0-8 3.4-8 7.7v3.1c0 1 .6 1.9 1.5 2.3l.5.2v2.4c0 .6.5 1 1 1h.5v1.8c0 .5.5.9 1 .9.5 0 1-.4 1-.9V20.7h1v2.8c0 .5.5.9 1 .9.5 0 1-.4 1-.9V20.7h1v2.8c0 .5.5.9 1 .9.5 0 1-.4 1-.9V20.7h.5c.5 0 1-.4 1-1v-2.4l.5-.2c.9-.4 1.5-1.3 1.5-2.3v-3.1C24 7.4 20.4 4 16 4Z" fill="url(#fav-grad)"/><circle cx="13" cy="11.5" r="1.1" fill="#0a0b0d"/><circle cx="19" cy="11.5" r="1.1" fill="#0a0b0d"/></svg>
